<mxfile host="Electron" agent="Mozilla/5.0 (Windows NT 10.0; Win64; x64) AppleWebKit/537.36 (KHTML, like Gecko) draw.io/26.2.2 Chrome/134.0.6998.178 Electron/35.1.2 Safari/537.36" version="26.2.2">
  <diagram id="O6hqvyKyCKGFyMy6GzTp" name="Page-1">
    <mxGraphModel dx="1240" dy="645" grid="1" gridSize="10" guides="1" tooltips="1" connect="1" arrows="1" fold="1" page="1" pageScale="1" pageWidth="850" pageHeight="1100" math="0" shadow="0">
      <root>
        <mxCell id="0" />
        <mxCell id="1" parent="0" />
        <mxCell id="Zls0wjVOrhQJAhmhsW95-1" value="&lt;b&gt;&lt;font style=&quot;font-size: 17px;&quot;&gt;Yelp Sentimental And Data Analysis&lt;/font&gt;&lt;/b&gt;" style="rounded=0;whiteSpace=wrap;html=1;align=center;" vertex="1" parent="1">
          <mxGeometry x="352.4" y="120" width="600" height="60" as="geometry" />
        </mxCell>
        <mxCell id="Zls0wjVOrhQJAhmhsW95-54" style="edgeStyle=orthogonalEdgeStyle;rounded=0;orthogonalLoop=1;jettySize=auto;html=1;exitX=1;exitY=0;exitDx=0;exitDy=0;exitPerimeter=0;entryX=0;entryY=0.5;entryDx=0;entryDy=0;fontSize=25;" edge="1" parent="1" source="Zls0wjVOrhQJAhmhsW95-2" target="Zls0wjVOrhQJAhmhsW95-1">
          <mxGeometry relative="1" as="geometry">
            <Array as="points">
              <mxPoint x="260" y="150" />
              <mxPoint x="260" y="150" />
            </Array>
          </mxGeometry>
        </mxCell>
        <mxCell id="Zls0wjVOrhQJAhmhsW95-2" value="" style="strokeWidth=2;html=1;shape=mxgraph.flowchart.annotation_1;align=left;pointerEvents=1;" vertex="1" parent="1">
          <mxGeometry x="50" y="150" width="170" height="180" as="geometry" />
        </mxCell>
        <mxCell id="Zls0wjVOrhQJAhmhsW95-3" value="" style="dashed=0;outlineConnect=0;html=1;align=center;labelPosition=center;verticalLabelPosition=bottom;verticalAlign=top;shape=mxgraph.weblogos.json" vertex="1" parent="1">
          <mxGeometry x="60" y="292.1" width="50" height="55.8" as="geometry" />
        </mxCell>
        <mxCell id="Zls0wjVOrhQJAhmhsW95-4" value="" style="outlineConnect=0;dashed=0;verticalLabelPosition=bottom;verticalAlign=top;align=center;html=1;shape=mxgraph.aws3.android;fillColor=#FFD44F;gradientColor=none;" vertex="1" parent="1">
          <mxGeometry x="200" y="290" width="53.5" height="60" as="geometry" />
        </mxCell>
        <mxCell id="Zls0wjVOrhQJAhmhsW95-5" value="" style="dashed=0;outlineConnect=0;html=1;align=center;labelPosition=center;verticalLabelPosition=bottom;verticalAlign=top;shape=mxgraph.webicons.json;gradientColor=#DFDEDE" vertex="1" parent="1">
          <mxGeometry x="310" y="236.8" width="42.4" height="45" as="geometry" />
        </mxCell>
        <mxCell id="Zls0wjVOrhQJAhmhsW95-6" value="" style="dashed=0;outlineConnect=0;html=1;align=center;labelPosition=center;verticalLabelPosition=bottom;verticalAlign=top;shape=mxgraph.webicons.json;gradientColor=#DFDEDE" vertex="1" parent="1">
          <mxGeometry x="310" y="290" width="42.4" height="47.1" as="geometry" />
        </mxCell>
        <mxCell id="Zls0wjVOrhQJAhmhsW95-7" value="" style="dashed=0;outlineConnect=0;html=1;align=center;labelPosition=center;verticalLabelPosition=bottom;verticalAlign=top;shape=mxgraph.webicons.json;gradientColor=#DFDEDE" vertex="1" parent="1">
          <mxGeometry x="310" y="350" width="42.4" height="50" as="geometry" />
        </mxCell>
        <mxCell id="Zls0wjVOrhQJAhmhsW95-9" value="" style="endArrow=none;dashed=1;html=1;rounded=0;" edge="1" parent="1" target="Zls0wjVOrhQJAhmhsW95-5">
          <mxGeometry width="50" height="50" relative="1" as="geometry">
            <mxPoint x="260" y="300" as="sourcePoint" />
            <mxPoint x="330" y="250" as="targetPoint" />
          </mxGeometry>
        </mxCell>
        <mxCell id="Zls0wjVOrhQJAhmhsW95-10" value="" style="endArrow=none;dashed=1;html=1;rounded=0;" edge="1" parent="1" target="Zls0wjVOrhQJAhmhsW95-6">
          <mxGeometry width="50" height="50" relative="1" as="geometry">
            <mxPoint x="260" y="320" as="sourcePoint" />
            <mxPoint x="330" y="330" as="targetPoint" />
          </mxGeometry>
        </mxCell>
        <mxCell id="Zls0wjVOrhQJAhmhsW95-11" value="" style="endArrow=none;dashed=1;html=1;rounded=0;" edge="1" parent="1" target="Zls0wjVOrhQJAhmhsW95-7">
          <mxGeometry width="50" height="50" relative="1" as="geometry">
            <mxPoint x="260" y="340" as="sourcePoint" />
            <mxPoint x="330" y="410" as="targetPoint" />
          </mxGeometry>
        </mxCell>
        <mxCell id="Zls0wjVOrhQJAhmhsW95-13" value="" style="shape=mxgraph.arrows2.wedgeArrow;html=1;bendable=0;startWidth=10;fillColor=strokeColor;defaultFillColor=invert;defaultGradientColor=invert;rounded=0;" edge="1" parent="1">
          <mxGeometry width="100" height="100" relative="1" as="geometry">
            <mxPoint x="140" y="330" as="sourcePoint" />
            <mxPoint x="160" y="330" as="targetPoint" />
          </mxGeometry>
        </mxCell>
        <mxCell id="Zls0wjVOrhQJAhmhsW95-14" value="Amazon S3" style="sketch=0;outlineConnect=0;fontColor=#232F3E;gradientColor=none;strokeColor=#ffffff;fillColor=#232F3E;dashed=0;verticalLabelPosition=middle;verticalAlign=bottom;align=center;html=1;whiteSpace=wrap;fontSize=10;fontStyle=1;spacing=3;shape=mxgraph.aws4.productIcon;prIcon=mxgraph.aws4.s3;" vertex="1" parent="1">
          <mxGeometry x="400" y="280" width="60" height="80" as="geometry" />
        </mxCell>
        <mxCell id="Zls0wjVOrhQJAhmhsW95-15" value="" style="endArrow=none;dashed=1;html=1;rounded=0;" edge="1" parent="1" source="Zls0wjVOrhQJAhmhsW95-14" target="Zls0wjVOrhQJAhmhsW95-5">
          <mxGeometry width="50" height="50" relative="1" as="geometry">
            <mxPoint x="400" y="340" as="sourcePoint" />
            <mxPoint x="360" y="270" as="targetPoint" />
          </mxGeometry>
        </mxCell>
        <mxCell id="Zls0wjVOrhQJAhmhsW95-16" value="" style="endArrow=none;dashed=1;html=1;rounded=0;" edge="1" parent="1" target="Zls0wjVOrhQJAhmhsW95-6">
          <mxGeometry width="50" height="50" relative="1" as="geometry">
            <mxPoint x="400" y="312" as="sourcePoint" />
            <mxPoint x="362" y="282" as="targetPoint" />
          </mxGeometry>
        </mxCell>
        <mxCell id="Zls0wjVOrhQJAhmhsW95-17" value="" style="endArrow=none;dashed=1;html=1;rounded=0;" edge="1" parent="1" source="Zls0wjVOrhQJAhmhsW95-14" target="Zls0wjVOrhQJAhmhsW95-7">
          <mxGeometry width="50" height="50" relative="1" as="geometry">
            <mxPoint x="420" y="322" as="sourcePoint" />
            <mxPoint x="372" y="292" as="targetPoint" />
          </mxGeometry>
        </mxCell>
        <mxCell id="Zls0wjVOrhQJAhmhsW95-18" value="" style="endArrow=classic;html=1;rounded=0;exitX=1.08;exitY=0.408;exitDx=0;exitDy=0;exitPerimeter=0;" edge="1" parent="1" source="Zls0wjVOrhQJAhmhsW95-14">
          <mxGeometry width="50" height="50" relative="1" as="geometry">
            <mxPoint x="470" y="310" as="sourcePoint" />
            <mxPoint x="530" y="313" as="targetPoint" />
          </mxGeometry>
        </mxCell>
        <mxCell id="Zls0wjVOrhQJAhmhsW95-19" value="" style="shape=mxgraph.signs.nature.snowflake;html=1;pointerEvents=1;fillColor=#000000;strokeColor=none;verticalLabelPosition=bottom;verticalAlign=top;align=center;" vertex="1" parent="1">
          <mxGeometry x="540" y="277.9" width="67" height="70" as="geometry" />
        </mxCell>
        <mxCell id="Zls0wjVOrhQJAhmhsW95-20" value="" style="endArrow=classic;html=1;rounded=0;" edge="1" parent="1">
          <mxGeometry width="50" height="50" relative="1" as="geometry">
            <mxPoint x="610" y="310" as="sourcePoint" />
            <mxPoint x="700" y="310" as="targetPoint" />
          </mxGeometry>
        </mxCell>
        <mxCell id="Zls0wjVOrhQJAhmhsW95-21" value="Table" style="shape=table;startSize=30;container=1;collapsible=0;childLayout=tableLayout;strokeColor=default;fontSize=16;" vertex="1" parent="1">
          <mxGeometry x="710" y="246.8" width="140" height="113.2" as="geometry" />
        </mxCell>
        <mxCell id="Zls0wjVOrhQJAhmhsW95-22" value="" style="shape=tableRow;horizontal=0;startSize=0;swimlaneHead=0;swimlaneBody=0;strokeColor=inherit;top=0;left=0;bottom=0;right=0;collapsible=0;dropTarget=0;fillColor=none;points=[[0,0.5],[1,0.5]];portConstraint=eastwest;fontSize=16;" vertex="1" parent="Zls0wjVOrhQJAhmhsW95-21">
          <mxGeometry y="30" width="140" height="28" as="geometry" />
        </mxCell>
        <mxCell id="Zls0wjVOrhQJAhmhsW95-23" value="" style="shape=partialRectangle;html=1;whiteSpace=wrap;connectable=0;strokeColor=inherit;overflow=hidden;fillColor=none;top=0;left=0;bottom=0;right=0;pointerEvents=1;fontSize=16;" vertex="1" parent="Zls0wjVOrhQJAhmhsW95-22">
          <mxGeometry width="47" height="28" as="geometry">
            <mxRectangle width="47" height="28" as="alternateBounds" />
          </mxGeometry>
        </mxCell>
        <mxCell id="Zls0wjVOrhQJAhmhsW95-24" value="" style="shape=partialRectangle;html=1;whiteSpace=wrap;connectable=0;strokeColor=inherit;overflow=hidden;fillColor=none;top=0;left=0;bottom=0;right=0;pointerEvents=1;fontSize=16;" vertex="1" parent="Zls0wjVOrhQJAhmhsW95-22">
          <mxGeometry x="47" width="46" height="28" as="geometry">
            <mxRectangle width="46" height="28" as="alternateBounds" />
          </mxGeometry>
        </mxCell>
        <mxCell id="Zls0wjVOrhQJAhmhsW95-25" value="" style="shape=partialRectangle;html=1;whiteSpace=wrap;connectable=0;strokeColor=inherit;overflow=hidden;fillColor=none;top=0;left=0;bottom=0;right=0;pointerEvents=1;fontSize=16;" vertex="1" parent="Zls0wjVOrhQJAhmhsW95-22">
          <mxGeometry x="93" width="47" height="28" as="geometry">
            <mxRectangle width="47" height="28" as="alternateBounds" />
          </mxGeometry>
        </mxCell>
        <mxCell id="Zls0wjVOrhQJAhmhsW95-26" value="" style="shape=tableRow;horizontal=0;startSize=0;swimlaneHead=0;swimlaneBody=0;strokeColor=inherit;top=0;left=0;bottom=0;right=0;collapsible=0;dropTarget=0;fillColor=none;points=[[0,0.5],[1,0.5]];portConstraint=eastwest;fontSize=16;" vertex="1" parent="Zls0wjVOrhQJAhmhsW95-21">
          <mxGeometry y="58" width="140" height="27" as="geometry" />
        </mxCell>
        <mxCell id="Zls0wjVOrhQJAhmhsW95-27" value="" style="shape=partialRectangle;html=1;whiteSpace=wrap;connectable=0;strokeColor=inherit;overflow=hidden;fillColor=none;top=0;left=0;bottom=0;right=0;pointerEvents=1;fontSize=16;" vertex="1" parent="Zls0wjVOrhQJAhmhsW95-26">
          <mxGeometry width="47" height="27" as="geometry">
            <mxRectangle width="47" height="27" as="alternateBounds" />
          </mxGeometry>
        </mxCell>
        <mxCell id="Zls0wjVOrhQJAhmhsW95-28" value="" style="shape=partialRectangle;html=1;whiteSpace=wrap;connectable=0;strokeColor=inherit;overflow=hidden;fillColor=none;top=0;left=0;bottom=0;right=0;pointerEvents=1;fontSize=16;" vertex="1" parent="Zls0wjVOrhQJAhmhsW95-26">
          <mxGeometry x="47" width="46" height="27" as="geometry">
            <mxRectangle width="46" height="27" as="alternateBounds" />
          </mxGeometry>
        </mxCell>
        <mxCell id="Zls0wjVOrhQJAhmhsW95-29" value="" style="shape=partialRectangle;html=1;whiteSpace=wrap;connectable=0;strokeColor=inherit;overflow=hidden;fillColor=none;top=0;left=0;bottom=0;right=0;pointerEvents=1;fontSize=16;" vertex="1" parent="Zls0wjVOrhQJAhmhsW95-26">
          <mxGeometry x="93" width="47" height="27" as="geometry">
            <mxRectangle width="47" height="27" as="alternateBounds" />
          </mxGeometry>
        </mxCell>
        <mxCell id="Zls0wjVOrhQJAhmhsW95-30" value="" style="shape=tableRow;horizontal=0;startSize=0;swimlaneHead=0;swimlaneBody=0;strokeColor=inherit;top=0;left=0;bottom=0;right=0;collapsible=0;dropTarget=0;fillColor=none;points=[[0,0.5],[1,0.5]];portConstraint=eastwest;fontSize=16;" vertex="1" parent="Zls0wjVOrhQJAhmhsW95-21">
          <mxGeometry y="85" width="140" height="28" as="geometry" />
        </mxCell>
        <mxCell id="Zls0wjVOrhQJAhmhsW95-31" value="" style="shape=partialRectangle;html=1;whiteSpace=wrap;connectable=0;strokeColor=inherit;overflow=hidden;fillColor=none;top=0;left=0;bottom=0;right=0;pointerEvents=1;fontSize=16;" vertex="1" parent="Zls0wjVOrhQJAhmhsW95-30">
          <mxGeometry width="47" height="28" as="geometry">
            <mxRectangle width="47" height="28" as="alternateBounds" />
          </mxGeometry>
        </mxCell>
        <mxCell id="Zls0wjVOrhQJAhmhsW95-32" value="" style="shape=partialRectangle;html=1;whiteSpace=wrap;connectable=0;strokeColor=inherit;overflow=hidden;fillColor=none;top=0;left=0;bottom=0;right=0;pointerEvents=1;fontSize=16;" vertex="1" parent="Zls0wjVOrhQJAhmhsW95-30">
          <mxGeometry x="47" width="46" height="28" as="geometry">
            <mxRectangle width="46" height="28" as="alternateBounds" />
          </mxGeometry>
        </mxCell>
        <mxCell id="Zls0wjVOrhQJAhmhsW95-33" value="" style="shape=partialRectangle;html=1;whiteSpace=wrap;connectable=0;strokeColor=inherit;overflow=hidden;fillColor=none;top=0;left=0;bottom=0;right=0;pointerEvents=1;fontSize=16;" vertex="1" parent="Zls0wjVOrhQJAhmhsW95-30">
          <mxGeometry x="93" width="47" height="28" as="geometry">
            <mxRectangle width="47" height="28" as="alternateBounds" />
          </mxGeometry>
        </mxCell>
        <mxCell id="Zls0wjVOrhQJAhmhsW95-34" value="" style="sketch=0;aspect=fixed;pointerEvents=1;shadow=0;dashed=0;html=1;strokeColor=none;labelPosition=center;verticalLabelPosition=bottom;verticalAlign=top;align=center;shape=mxgraph.mscae.enterprise.udf_function;fillColor=#0078D7;" vertex="1" parent="1">
          <mxGeometry x="910" y="277.9" width="47" height="50" as="geometry" />
        </mxCell>
        <mxCell id="Zls0wjVOrhQJAhmhsW95-35" value="" style="endArrow=classic;html=1;rounded=0;entryX=-0.034;entryY=0.662;entryDx=0;entryDy=0;entryPerimeter=0;" edge="1" parent="1" target="Zls0wjVOrhQJAhmhsW95-34">
          <mxGeometry width="50" height="50" relative="1" as="geometry">
            <mxPoint x="850" y="311" as="sourcePoint" />
            <mxPoint x="870" y="310" as="targetPoint" />
          </mxGeometry>
        </mxCell>
        <mxCell id="Zls0wjVOrhQJAhmhsW95-36" value="" style="image;aspect=fixed;html=1;points=[];align=center;fontSize=12;image=img/lib/azure2/databases/SQL_Database.svg;" vertex="1" parent="1">
          <mxGeometry x="1050" y="267.9" width="45" height="60" as="geometry" />
        </mxCell>
        <mxCell id="Zls0wjVOrhQJAhmhsW95-37" value="" style="endArrow=classic;html=1;rounded=0;" edge="1" parent="1">
          <mxGeometry width="50" height="50" relative="1" as="geometry">
            <mxPoint x="960" y="310" as="sourcePoint" />
            <mxPoint x="1040" y="310" as="targetPoint" />
            <Array as="points">
              <mxPoint x="960" y="310" />
            </Array>
          </mxGeometry>
        </mxCell>
        <mxCell id="Zls0wjVOrhQJAhmhsW95-53" style="edgeStyle=orthogonalEdgeStyle;rounded=0;orthogonalLoop=1;jettySize=auto;html=1;exitX=1;exitY=1;exitDx=0;exitDy=0;exitPerimeter=0;fontSize=20;" edge="1" parent="1" source="Zls0wjVOrhQJAhmhsW95-39" target="Zls0wjVOrhQJAhmhsW95-1">
          <mxGeometry relative="1" as="geometry">
            <Array as="points">
              <mxPoint x="1070" y="150" />
              <mxPoint x="1070" y="150" />
            </Array>
          </mxGeometry>
        </mxCell>
        <mxCell id="Zls0wjVOrhQJAhmhsW95-39" value="" style="strokeWidth=2;html=1;shape=mxgraph.flowchart.annotation_1;align=left;pointerEvents=1;direction=west;" vertex="1" parent="1">
          <mxGeometry x="1100" y="150" width="130" height="160" as="geometry" />
        </mxCell>
        <mxCell id="Zls0wjVOrhQJAhmhsW95-43" value="&lt;font style=&quot;font-size: 12px;&quot;&gt;Yelp Business (100 mb)&lt;/font&gt;" style="strokeWidth=1;shadow=0;dashed=0;align=center;html=1;shape=mxgraph.mockup.text.textBox;fontColor=#666666;align=left;fontSize=17;spacingLeft=4;spacingTop=-3;whiteSpace=wrap;strokeColor=none;mainText=;fillColor=none;" vertex="1" parent="1">
          <mxGeometry x="370" y="480" width="140" height="30" as="geometry" />
        </mxCell>
        <mxCell id="Zls0wjVOrhQJAhmhsW95-44" value="Snowflake" style="strokeWidth=1;shadow=0;dashed=0;align=center;html=1;shape=mxgraph.mockup.text.textBox;fontColor=#666666;align=left;fontSize=17;spacingLeft=4;spacingTop=-3;whiteSpace=wrap;strokeColor=none;mainText=;fillColor=none;" vertex="1" parent="1">
          <mxGeometry x="530" y="360" width="100" height="30" as="geometry" />
        </mxCell>
        <mxCell id="Zls0wjVOrhQJAhmhsW95-45" value="&lt;font style=&quot;font-size: 10px;&quot;&gt;&lt;b&gt;UDF Sentimental Analysis&lt;/b&gt;&lt;/font&gt;" style="strokeWidth=1;shadow=0;dashed=0;align=center;html=1;shape=mxgraph.mockup.text.textBox;fontColor=#666666;align=left;fontSize=17;spacingLeft=4;spacingTop=-3;whiteSpace=wrap;strokeColor=none;mainText=;fillColor=none;" vertex="1" parent="1">
          <mxGeometry x="890" y="335" width="120" height="30" as="geometry" />
        </mxCell>
        <mxCell id="Zls0wjVOrhQJAhmhsW95-46" value="" style="dashed=0;outlineConnect=0;html=1;align=center;labelPosition=center;verticalLabelPosition=bottom;verticalAlign=top;shape=mxgraph.weblogos.json" vertex="1" parent="1">
          <mxGeometry x="410" y="420" width="40" height="45.8" as="geometry" />
        </mxCell>
        <mxCell id="Zls0wjVOrhQJAhmhsW95-47" value="" style="endArrow=classic;html=1;rounded=0;" edge="1" parent="1" source="Zls0wjVOrhQJAhmhsW95-46">
          <mxGeometry width="50" height="50" relative="1" as="geometry">
            <mxPoint x="430" y="400" as="sourcePoint" />
            <mxPoint x="430" y="370" as="targetPoint" />
          </mxGeometry>
        </mxCell>
        <mxCell id="Zls0wjVOrhQJAhmhsW95-48" value="&lt;font size=&quot;1&quot;&gt;&lt;b&gt;Flatten the json data&lt;/b&gt;&lt;/font&gt;" style="strokeWidth=1;shadow=0;dashed=0;align=center;html=1;shape=mxgraph.mockup.text.textBox;fontColor=#666666;align=left;fontSize=17;spacingLeft=4;spacingTop=-3;whiteSpace=wrap;strokeColor=none;mainText=;fillColor=none;" vertex="1" parent="1">
          <mxGeometry x="600" y="305" width="120" height="30" as="geometry" />
        </mxCell>
        <mxCell id="Zls0wjVOrhQJAhmhsW95-49" value="&lt;span style=&quot;font-size: 10px;&quot;&gt;&lt;b&gt;Data Analysis Using SQL&lt;/b&gt;&lt;/span&gt;" style="strokeWidth=1;shadow=0;dashed=0;align=center;html=1;shape=mxgraph.mockup.text.textBox;fontColor=#666666;align=left;fontSize=17;spacingLeft=4;spacingTop=-3;whiteSpace=wrap;strokeColor=none;mainText=;fillColor=none;" vertex="1" parent="1">
          <mxGeometry x="1030" y="330" width="130" height="30" as="geometry" />
        </mxCell>
        <mxCell id="Zls0wjVOrhQJAhmhsW95-51" value="Python Program" style="strokeWidth=1;shadow=0;dashed=0;align=center;html=1;shape=mxgraph.mockup.text.textBox;fontColor=#666666;align=left;fontSize=12;spacingLeft=4;spacingTop=-3;whiteSpace=wrap;strokeColor=none;mainText=;fillColor=none;fontStyle=1" vertex="1" parent="1">
          <mxGeometry x="176.75" y="352.5" width="100" height="45" as="geometry" />
        </mxCell>
        <mxCell id="Zls0wjVOrhQJAhmhsW95-52" value="&lt;span style=&quot;font-size: 12px;&quot;&gt;Yelp Reviews (5gb - 7 million)&lt;/span&gt;" style="strokeWidth=1;shadow=0;dashed=0;align=center;html=1;shape=mxgraph.mockup.text.textBox;fontColor=#666666;align=left;fontSize=17;spacingLeft=4;spacingTop=-3;whiteSpace=wrap;strokeColor=none;mainText=;fillColor=none;fontStyle=1" vertex="1" parent="1">
          <mxGeometry x="50" y="360" width="100" height="30" as="geometry" />
        </mxCell>
      </root>
    </mxGraphModel>
  </diagram>
</mxfile>
